<svg width="24" height="24" viewBox="0 0 24 24" fill="none" xmlns="http://www.w3.org/2000/svg">
<path d="M8 13C7.44772 13 7 13.4477 7 14C7 14.5523 7.44772 15 8 15V13ZM10 15C10.5523 15 11 14.5523 11 14C11 13.4477 10.5523 13 10 13V15ZM8 9C7.44772 9 7 9.44772 7 10C7 10.5523 7.44772 11 8 11V9ZM14 11C14.5523 11 15 10.5523 15 10C15 9.44772 14.5523 9 14 9V11ZM8 5C7.44772 5 7 5.44772 7 6C7 6.55228 7.44772 7 8 7V5ZM14 7C14.5523 7 15 6.55228 15 6C15 5.44772 14.5523 5 14 5V7ZM17 8C17 8.55228 17.4477 9 18 9C18.5523 9 19 8.55228 19 8H17ZM9 21C9.55228 21 10 20.5523 10 20C10 19.4477 9.55228 19 9 19V21ZM5.07805 19.7748L5.53903 18.8874L5.53902 18.8874L5.07805 19.7748ZM4.22517 18.9219L3.33776 19.3829L3.33776 19.3829L4.22517 18.9219ZM16.9219 2.22517L16.461 3.11259L16.461 3.11259L16.9219 2.22517ZM17.7748 3.07805L16.8874 3.53902L16.8874 3.53903L17.7748 3.07805ZM5.07805 2.22517L4.61708 1.33776L4.61708 1.33776L5.07805 2.22517ZM4.22517 3.07805L3.33776 2.61708L3.33776 2.61708L4.22517 3.07805ZM8 15H10V13H8V15ZM8 11H14V9H8V11ZM8 7H14V5H8V7ZM7.22 3H14.78V1H7.22V3ZM17 5.22V8H19V5.22H17ZM9 19H7.22V21H9V19ZM5 16.78V5.22H3V16.78H5ZM7.22 19C6.63372 19 6.25517 18.9992 5.96722 18.9753C5.69125 18.9524 5.58924 18.9135 5.53903 18.8874L4.61708 20.6622C5.00034 20.8613 5.39981 20.935 5.8017 20.9684C6.19162 21.0008 6.66729 21 7.22 21V19ZM3 16.78C3 17.3327 2.9992 17.8084 3.03158 18.1983C3.06495 18.6002 3.13867 18.9997 3.33776 19.3829L5.11259 18.461C5.0865 18.4108 5.04763 18.3088 5.02472 18.0328C5.0008 17.7448 5 17.3663 5 16.78H3ZM5.53902 18.8874C5.35638 18.7925 5.20746 18.6436 5.11259 18.461L3.33776 19.3829C3.62239 19.9309 4.06915 20.3776 4.61708 20.6622L5.53902 18.8874ZM14.78 3C15.3663 3 15.7448 3.0008 16.0328 3.02472C16.3088 3.04763 16.4108 3.0865 16.461 3.11259L17.3829 1.33776C16.9997 1.13867 16.6002 1.06495 16.1983 1.03158C15.8084 0.999196 15.3327 1 14.78 1V3ZM19 5.22C19 4.66729 19.0008 4.19162 18.9684 3.8017C18.935 3.39982 18.8613 3.00034 18.6622 2.61708L16.8874 3.53903C16.9135 3.58924 16.9524 3.69125 16.9753 3.96722C16.9992 4.25517 17 4.63372 17 5.22H19ZM16.461 3.11259C16.6436 3.20746 16.7925 3.35638 16.8874 3.53902L18.6622 2.61708C18.3776 2.06915 17.9309 1.62239 17.3829 1.33776L16.461 3.11259ZM7.22 1C6.66729 1 6.19162 0.999196 5.8017 1.03158C5.39981 1.06495 5.00034 1.13867 4.61708 1.33776L5.53903 3.11259C5.58924 3.0865 5.69125 3.04763 5.96722 3.02472C6.25517 3.0008 6.63372 3 7.22 3V1ZM5 5.22C5 4.63372 5.0008 4.25517 5.02472 3.96722C5.04763 3.69125 5.0865 3.58924 5.11259 3.53903L3.33776 2.61708C3.13867 3.00034 3.06495 3.39982 3.03158 3.8017C2.9992 4.19162 3 4.66729 3 5.22H5ZM4.61708 1.33776C4.06915 1.62239 3.62239 2.06915 3.33776 2.61708L5.11259 3.53903C5.20746 3.35638 5.35638 3.20746 5.53903 3.11259L4.61708 1.33776ZM18 14C18 14.5523 17.5523 15 17 15V17C18.6569 17 20 15.6569 20 14H18ZM17 15C16.4477 15 16 14.5523 16 14H14C14 15.6569 15.3431 17 17 17V15ZM16 14C16 13.4477 16.4477 13 17 13V11C15.3431 11 14 12.3431 14 14H16ZM17 13C17.5523 13 18 13.4477 18 14H20C20 12.3431 18.6569 11 17 11V13ZM20.9949 19H13.0051V21H20.9949V19ZM20 19.9949C20 19.4454 20.4454 19 20.9949 19V21C21.5499 21 22 20.55 22 19.9949H20ZM17 17C18.6557 17 20 18.3425 20 19.9949H22C22 17.2346 19.7569 15 17 15V17ZM14 19.9949C14 18.3425 15.3443 17 17 17V15C14.2431 15 12 17.2346 12 19.9949H14ZM12 19.9949C12 20.55 12.45 21 13.0051 21V19C13.5546 19 14 19.4454 14 19.9949H12Z" fill="#111111"/>
</svg>
