    <svg width="32" height="32" viewBox="0 0 32 32" fill="none" xmlns="http://www.w3.org/2000/svg">
<g clip-path="url(#clip0_2628_63398)">
<path d="M16 0C12.8355 0 9.74207 0.938384 7.11088 2.69649C4.4797 4.45459 2.42894 6.95345 1.21793 9.87707C0.00693258 12.8007 -0.309921 16.0178 0.307443 19.1214C0.924806 22.2251 2.44866 25.0761 4.6863 27.3137C6.92394 29.5514 9.77487 31.0752 12.8786 31.6926C15.9823 32.3099 19.1993 31.9931 22.1229 30.7821C25.0466 29.5711 27.5454 27.5203 29.3035 24.8891C31.0616 22.2579 32 19.1645 32 16C32 11.7565 30.3143 7.68687 27.3137 4.68629C24.3131 1.68571 20.2435 0 16 0V0ZM16 29.3333C13.3629 29.3333 10.7851 28.5513 8.5924 27.0863C6.39975 25.6212 4.69078 23.5388 3.68161 21.1024C2.67245 18.6661 2.4084 15.9852 2.92287 13.3988C3.43734 10.8124 4.70722 8.43661 6.57192 6.57191C8.43662 4.70721 10.8124 3.43733 13.3988 2.92286C15.9852 2.40839 18.6661 2.67244 21.1025 3.68161C23.5388 4.69078 25.6212 6.39974 27.0863 8.5924C28.5514 10.7851 29.3333 13.3629 29.3333 16C29.3333 19.5362 27.9286 22.9276 25.4281 25.4281C22.9276 27.9286 19.5362 29.3333 16 29.3333V29.3333Z" fill="#6FCF97"/>
</g>
<path d="M13.9904 22.5992C13.6398 22.5995 13.2926 22.5307 12.9686 22.3966C12.6446 22.2625 12.3503 22.0659 12.1024 21.8179L7.05707 16.8859C6.80423 16.6384 6.66008 16.3005 6.65633 15.9467C6.65257 15.5929 6.78953 15.2521 7.03707 14.9992C7.2846 14.7464 7.62244 14.6023 7.97626 14.5985C8.33008 14.5948 8.67089 14.7317 8.92373 14.9792L13.9811 19.9219L23.0557 10.9886C23.3116 10.7634 23.6441 10.6448 23.9847 10.6571C24.3253 10.6694 24.6483 10.8118 24.8873 11.0548C25.1263 11.2979 25.2631 11.6232 25.2696 11.964C25.2761 12.3048 25.1519 12.6352 24.9224 12.8872L15.8651 21.8299C15.6185 22.0751 15.326 22.2693 15.0044 22.4013C14.6827 22.5333 14.3381 22.6006 13.9904 22.5992Z" fill="#6FCF97"/>
<defs>
<clipPath id="clip0_2628_63398">
<rect width="32" height="32" fill="white"/>
</clipPath>
</defs>
</svg>
