<?xml version="1.0" encoding="UTF-8"?>
<svg xmlns="http://www.w3.org/2000/svg" xmlns:xlink="http://www.w3.org/1999/xlink" width="50px" height="50px" viewBox="0 0 50 50" version="1.1">
<g id="surface1">
<path style=" stroke:none;fill-rule:nonzero;fill:rgb(0%,68.235294%,14.901961%);fill-opacity:1;" d="M 27.527344 0.113281 C 13.785156 -1.207031 1.570312 8.859375 0.246094 22.605469 C -1.078125 36.347656 8.992188 48.5625 22.734375 49.886719 C 36.476562 51.207031 48.691406 41.140625 50.015625 27.394531 C 51.339844 13.652344 41.269531 1.4375 27.527344 0.113281 Z M 37.320312 19.226562 L 23.648438 36.296875 C 23.644531 36.300781 23.636719 36.304688 23.636719 36.304688 C 23.566406 36.394531 23.523438 36.496094 23.433594 36.574219 C 23.316406 36.683594 23.167969 36.730469 23.035156 36.808594 C 23.003906 36.828125 22.96875 36.851562 22.933594 36.867188 C 22.726562 36.972656 22.523438 37.035156 22.296875 37.066406 C 22.226562 37.078125 22.160156 37.089844 22.082031 37.09375 C 21.90625 37.101562 21.730469 37.085938 21.558594 37.050781 C 21.4375 37.03125 21.316406 37 21.199219 36.960938 C 21.082031 36.910156 20.964844 36.851562 20.855469 36.78125 C 20.761719 36.726562 20.65625 36.703125 20.570312 36.636719 C 20.503906 36.585938 20.472656 36.511719 20.421875 36.453125 C 20.398438 36.429688 20.367188 36.421875 20.34375 36.398438 L 14.023438 29.3125 C 13.648438 28.875 13.460938 28.3125 13.5 27.742188 C 13.535156 27.167969 13.796875 26.636719 14.226562 26.253906 C 14.652344 25.871094 15.210938 25.675781 15.785156 25.699219 C 16.355469 25.726562 16.894531 25.976562 17.285156 26.398438 L 21.863281 31.527344 L 33.90625 16.492188 C 34.269531 16.039062 34.796875 15.75 35.371094 15.683594 C 35.949219 15.621094 36.527344 15.789062 36.980469 16.152344 C 37.433594 16.515625 37.722656 17.042969 37.789062 17.617188 C 37.851562 18.195312 37.683594 18.773438 37.320312 19.226562 Z M 37.320312 19.226562 "/>
</g>
</svg>
