<?xml version="1.0" encoding="UTF-8"?>
<svg xmlns="http://www.w3.org/2000/svg" xmlns:xlink="http://www.w3.org/1999/xlink" width="60px" height="60px" viewBox="0 0 60 60" version="1.1">
<g id="surface1">
<path style=" stroke:none;fill-rule:nonzero;fill:rgb(92.156863%,34.117647%,34.117647%);fill-opacity:1;" d="M 2.5 30 C 2.5 45.1875 14.8125 57.5 30 57.5 C 45.1875 57.5 57.5 45.1875 57.5 30 C 57.5 14.8125 45.1875 2.5 30 2.5 C 14.8125 2.5 2.5 14.8125 2.5 30 Z M 2.5 30 "/>
<path style="fill:none;stroke-width:2;stroke-linecap:round;stroke-linejoin:miter;stroke:rgb(100%,100%,100%);stroke-opacity:1;stroke-miterlimit:4;" d="M 45.000029 45.000029 L 36.000023 36.000023 M 36.000023 36.000023 L 27.000017 27.000017 M 36.000023 36.000023 L 27.000017 45.000029 M 36.000023 36.000023 L 45.000029 27.000017 M 3.000002 36.000023 C 3.000002 54.225035 17.775011 69.000044 36.000023 69.000044 C 54.225035 69.000044 69.000044 54.225035 69.000044 36.000023 C 69.000044 17.775011 54.225035 3.000002 36.000023 3.000002 C 17.775011 3.000002 3.000002 17.775011 3.000002 36.000023 Z M 3.000002 36.000023 " transform="matrix(0.833333,0,0,0.833333,0,0)"/>
</g>
</svg>
