<svg width="32" height="32" viewBox="0 0 32 32" fill="none" xmlns="http://www.w3.org/2000/svg">
<g clip-path="url(#clip0_175_43664)">
<path d="M21.3339 10.6667C21.0839 10.4168 20.7448 10.2764 20.3912 10.2764C20.0377 10.2764 19.6986 10.4168 19.4486 10.6667L16.0006 14.1147L12.5526 10.6667C12.3011 10.4239 11.9643 10.2895 11.6147 10.2925C11.2651 10.2956 10.9307 10.4358 10.6835 10.683C10.4363 10.9302 10.2961 11.2646 10.293 11.6142C10.29 11.9638 10.4244 12.3006 10.6673 12.5521L14.1152 16.0001L10.6673 19.4481C10.4244 19.6996 10.29 20.0364 10.293 20.386C10.2961 20.7355 10.4363 21.07 10.6835 21.3172C10.9307 21.5644 11.2651 21.7046 11.6147 21.7076C11.9643 21.7107 12.3011 21.5763 12.5526 21.3334L16.0006 17.8854L19.4486 21.3334C19.7 21.5763 20.0368 21.7107 20.3864 21.7076C20.736 21.7046 21.0704 21.5644 21.3177 21.3172C21.5649 21.07 21.7051 20.7355 21.7081 20.386C21.7112 20.0364 21.5768 19.6996 21.3339 19.4481L17.8859 16.0001L21.3339 12.5521C21.5839 12.302 21.7243 11.963 21.7243 11.6094C21.7243 11.2559 21.5839 10.9168 21.3339 10.6667Z" fill="#EB5757"/>
<path d="M16 0C12.8355 0 9.74207 0.938384 7.11088 2.69649C4.4797 4.45459 2.42894 6.95345 1.21793 9.87707C0.00693258 12.8007 -0.309921 16.0178 0.307443 19.1214C0.924806 22.2251 2.44866 25.0761 4.6863 27.3137C6.92394 29.5514 9.77487 31.0752 12.8786 31.6926C15.9823 32.3099 19.1993 31.9931 22.1229 30.7821C25.0466 29.5711 27.5454 27.5203 29.3035 24.8891C31.0616 22.2579 32 19.1645 32 16C31.9954 11.7579 30.3082 7.69095 27.3087 4.69136C24.3091 1.69177 20.2421 0.00458811 16 0V0ZM16 29.3333C13.3629 29.3333 10.7851 28.5513 8.5924 27.0863C6.39975 25.6212 4.69078 23.5388 3.68161 21.1024C2.67245 18.6661 2.4084 15.9852 2.92287 13.3988C3.43734 10.8124 4.70722 8.43661 6.57192 6.57191C8.43662 4.70721 10.8124 3.43733 13.3988 2.92286C15.9852 2.40839 18.6661 2.67244 21.1025 3.68161C23.5388 4.69078 25.6212 6.39974 27.0863 8.5924C28.5514 10.7851 29.3333 13.3629 29.3333 16C29.3295 19.535 27.9235 22.9242 25.4238 25.4238C22.9242 27.9234 19.535 29.3295 16 29.3333V29.3333Z" fill="#EB5757"/>
</g>
<defs>
<clipPath id="clip0_175_43664">
<rect width="32" height="32" fill="white"/>
</clipPath>
</defs>
</svg>
