<svg width="16" height="19" viewBox="0 0 16 19" fill="none" xmlns="http://www.w3.org/2000/svg">
<path d="M10.6457 17C9.94062 17.6223 9.01441 17.9999 8 17.9999C6.98559 17.9999 6.05938 17.6223 5.35426 17M13.9974 10.1808V7C13.9974 3.67772 11.3223 1 8 1C4.67772 1 1.96637 3.56356 1.96637 7V10.1593C1.96637 10.6424 1.89106 11.1224 1.74334 11.5808L1.00488 13.8723C0.984658 13.9351 1.02981 13.9999 1.09375 13.9999H14.8632C14.9308 13.9999 14.9788 13.934 14.958 13.8697L14.2146 11.5626C14.0707 11.1161 13.9974 10.6499 13.9974 10.1808Z" stroke="#1E4076" stroke-width="2" stroke-linecap="round"/>
</svg>
